<?xml version="1.0" standalone="no"?>
<!DOCTYPE svg PUBLIC "-//W3C//DTD SVG 20010904//EN"
 "http://www.w3.org/TR/2001/REC-SVG-20010904/DTD/svg10.dtd">
<svg version="1.0" xmlns="http://www.w3.org/2000/svg"
 width="450.000000pt" height="450.000000pt" viewBox="0 0 450.000000 450.000000"
 preserveAspectRatio="xMidYMid meet">
<metadata>
Created by potrace 1.11, written by Peter Selinger 2001-2013
</metadata>
<g transform="translate(0.000000,450.000000) scale(0.100000,-0.100000)"
fill="#000000" stroke="none">
<path d="M0 4284 c0 -163 2 -214 12 -214 9 0 9 -3 0 -12 -19 -19 -14 -29 8
-16 13 8 16 16 10 22 -6 6 -10 13 -10 17 0 11 54 6 62 -6 4 -5 8 0 8 11 0 14
8 24 23 28 22 6 22 6 2 22 l-20 16 20 -3 c22 -2 55 9 55 20 0 3 -21 6 -48 7
-52 0 -57 10 -28 49 21 28 44 32 52 10 7 -18 24 -10 24 11 0 8 -7 14 -16 14
-14 0 -14 3 -4 15 7 8 21 15 31 15 11 0 19 5 19 10 0 6 -4 10 -10 10 -5 0 -10
5 -10 11 0 7 11 9 31 5 21 -4 35 -1 46 9 8 8 19 13 24 10 5 -4 6 8 2 26 -5 27
-3 31 10 26 9 -3 18 0 21 9 3 9 2 12 -5 8 -6 -3 -5 4 3 16 9 14 20 20 36 17
19 -4 22 0 22 24 0 19 -5 29 -15 29 -8 0 -15 -4 -15 -10 0 -5 -7 -7 -15 -4 -9
4 -15 0 -15 -10 0 -10 -6 -13 -15 -10 -12 5 -13 9 -4 20 10 13 -10 14 -139 13
l-151 -1 -1 -214z m260 191 c-7 -8 -10 -24 -7 -35 4 -15 0 -20 -16 -20 -18 0
-19 2 -7 10 8 5 11 12 8 16 -4 4 -19 -1 -32 -10 -33 -21 -53 -22 -36 -1 7 8
19 15 27 15 10 0 13 6 9 16 -5 12 -2 15 13 11 10 -2 25 -1 32 4 20 13 23 11 9
-6z m-130 -65 c0 -5 -4 -10 -10 -10 -5 0 -10 5 -10 10 0 6 5 10 10 10 6 0 10
-4 10 -10z m121 -58 c-9 -17 -16 -19 -48 -12 -26 6 -40 5 -45 -3 -4 -6 -10 -8
-14 -5 -12 13 26 39 68 46 47 9 55 3 39 -26z m-213 -132 c-7 -11 -16 -20 -20
-20 -11 0 -10 9 5 25 18 21 29 18 15 -5z m32 -10 c0 -5 -5 -10 -11 -10 -5 0
-7 5 -4 10 3 6 8 10 11 10 2 0 4 -4 4 -10z m-20 -39 c0 -17 -18 -21 -24 -6 -3
9 0 15 9 15 8 0 15 -4 15 -9z m38 -43 c-5 -15 -42 -22 -64 -14 -25 10 -5 26
32 26 24 0 34 -4 32 -12z"/>
<path d="M391 4484 c0 -11 3 -14 6 -6 3 7 2 16 -1 19 -3 4 -6 -2 -5 -13z"/>
<path d="M630 4490 c-8 -5 -11 -12 -7 -16 4 -4 13 -2 19 4 15 15 7 24 -12 12z"/>
<path d="M4120 4475 c0 -23 -3 -24 -35 -19 -43 7 -44 0 -3 -20 40 -21 43 -20
57 7 11 21 11 21 7 -7 -2 -16 1 -42 6 -58 10 -27 11 -28 24 -11 13 17 15 17
33 -6 10 -14 16 -31 13 -39 -4 -13 -7 -12 -17 1 -9 12 -15 13 -23 5 -9 -9 -17
-5 -33 13 -18 20 -21 21 -14 4 5 -11 8 -30 8 -42 -1 -13 3 -23 8 -23 5 0 9 5
9 10 0 6 11 10 25 10 21 0 25 -5 25 -31 0 -26 3 -31 20 -26 24 6 25 -1 5 -23
-10 -11 -12 -24 -6 -45 8 -30 31 -41 39 -17 2 6 -4 12 -13 12 -9 0 -13 4 -10
10 4 6 16 3 31 -7 l25 -16 -22 -23 c-24 -26 -54 -31 -62 -11 -3 7 -6 5 -6 -5
-1 -23 -21 -24 -21 -1 0 9 -3 14 -6 10 -7 -7 18 -67 28 -67 4 0 12 -8 17 -18
9 -16 6 -18 -20 -14 -16 2 -29 8 -29 13 0 5 -4 9 -10 9 -23 0 -7 -19 25 -30
24 -8 40 -8 54 -1 11 6 32 11 48 10 27 -1 27 -1 4 -8 -27 -7 -49 -36 -37 -48
4 -4 16 3 26 17 10 14 22 21 27 17 4 -5 1 -12 -6 -17 -8 -4 -11 -15 -8 -24 5
-12 0 -16 -18 -16 -33 0 -39 -15 -11 -28 14 -6 27 -21 31 -34 4 -13 15 -31 23
-41 14 -15 14 -21 3 -39 -7 -11 -14 -38 -16 -60 -4 -39 -3 -40 26 -36 33 5 40
-7 9 -17 -11 -4 -18 -11 -15 -16 4 -5 14 -5 26 1 18 10 23 6 20 -14 -1 -5 4
-13 11 -17 10 -7 10 -9 1 -9 -22 0 -15 -41 7 -47 28 -7 18 -39 -24 -76 -28
-25 -29 -28 -8 -24 14 4 22 0 22 -9 0 -8 7 -14 15 -14 10 0 12 -6 8 -17 -6
-16 -5 -16 10 -4 15 12 17 10 17 -15 0 -21 -3 -25 -11 -17 -15 15 -39 5 -39
-14 0 -11 7 -13 24 -9 26 6 42 -14 24 -32 -6 -6 -5 -16 3 -30 17 -27 5 -39
-16 -18 -23 23 -25 20 -12 -14 14 -37 32 -38 51 -2 14 25 15 25 16 5 0 -12 -4
-25 -10 -28 -5 -3 -10 -17 -10 -30 0 -13 -6 -26 -12 -29 -7 -3 -4 -4 8 -1 20
5 20 3 14 -40 -7 -47 -5 -55 17 -55 17 0 17 46 1 54 -10 5 -10 7 0 12 6 3 12
18 12 34 0 16 -6 31 -12 33 -10 4 -10 6 0 6 9 1 12 132 12 621 l0 620 -135 0
c-83 0 -135 -4 -135 -10 0 -5 -7 -10 -15 -10 -8 0 -15 5 -15 10 0 6 -10 10
-22 10 -12 0 -18 -3 -14 -7 4 -5 13 -8 19 -8 7 0 13 -16 15 -34 2 -19 11 -41
20 -48 16 -11 16 -12 0 -13 -9 0 -19 6 -22 13 -5 10 -7 10 -12 0 -13 -28 -26
-12 -20 25 4 30 2 41 -14 55 -27 22 -30 22 -30 -8z m185 -235 c-3 -5 -10 -10
-16 -10 -5 0 -9 5 -9 10 0 6 7 10 16 10 8 0 12 -4 9 -10z m-75 -149 c0 -6 -4
-13 -10 -16 -5 -3 -10 1 -10 9 0 9 5 16 10 16 6 0 10 -4 10 -9z m65 -31 c3 -5
-1 -10 -9 -10 -9 0 -16 5 -16 10 0 6 4 10 9 10 6 0 13 -4 16 -10z m169 -425
c3 -8 1 -15 -4 -15 -6 0 -10 7 -10 15 0 8 2 15 4 15 2 0 6 -7 10 -15z m6 -235
c0 -5 -2 -10 -4 -10 -3 0 -8 5 -11 10 -3 6 -1 10 4 10 6 0 11 -4 11 -10z"/>
<path d="M462 4455 c0 -16 2 -22 5 -12 2 9 2 23 0 30 -3 6 -5 -1 -5 -18z"/>
<path d="M490 4460 c0 -3 8 -14 17 -25 13 -16 15 -17 10 -2 -4 9 -2 17 3 17 6
0 10 4 10 8 0 4 -9 8 -20 8 -11 0 -20 -3 -20 -6z"/>
<path d="M3990 4425 c0 -8 5 -15 11 -15 5 0 8 4 4 9 -3 5 3 12 12 14 14 4 13
5 -4 6 -14 1 -23 -5 -23 -14z"/>
<path d="M4065 4420 c3 -5 8 -10 11 -10 2 0 4 5 4 10 0 6 -5 10 -11 10 -5 0
-7 -4 -4 -10z"/>
<path d="M3955 4400 c-3 -5 -1 -10 4 -10 6 0 11 5 11 10 0 6 -2 10 -4 10 -3 0
-8 -4 -11 -10z"/>
<path d="M330 4376 c0 -15 -3 -16 -15 -6 -17 14 -21 0 -4 -17 9 -9 16 -8 27 3
11 11 12 18 3 27 -8 8 -11 6 -11 -7z"/>
<path d="M472 4355 c0 -16 2 -22 5 -12 2 9 2 23 0 30 -3 6 -5 -1 -5 -18z"/>
<path d="M4050 4365 c0 -9 5 -15 11 -13 6 2 11 8 11 13 0 5 -5 11 -11 13 -6 2
-11 -4 -11 -13z"/>
<path d="M4100 4370 c0 -5 5 -10 10 -10 6 0 10 5 10 10 0 6 -4 10 -10 10 -5 0
-10 -4 -10 -10z"/>
<path d="M390 4356 c0 -9 8 -12 25 -8 14 2 25 8 25 13 0 5 -11 9 -25 9 -14 0
-25 -6 -25 -14z"/>
<path d="M1460 4326 c0 -8 -5 -27 -11 -43 -8 -22 -12 -24 -19 -13 -6 8 -10 12
-11 8 -1 -5 -3 -12 -4 -18 -1 -5 -3 -19 -4 -29 -1 -12 -10 -21 -23 -23 -13 -2
-22 -9 -20 -17 2 -9 -3 -11 -13 -7 -9 3 -13 2 -10 -3 3 -5 1 -12 -5 -16 -5 -3
-10 -17 -10 -31 0 -13 -3 -24 -8 -24 -20 0 -35 -51 -38 -130 l-3 -85 -48 -14
c-26 -7 -60 -22 -75 -32 -14 -11 -30 -19 -35 -19 -9 0 -92 -87 -161 -167 -15
-18 -41 -41 -59 -52 -18 -11 -32 -28 -31 -38 0 -10 -3 -26 -7 -35 -11 -26 12
-22 41 7 33 33 56 24 42 -16 -6 -19 -15 -28 -24 -25 -8 3 -11 0 -7 -9 3 -8 10
-12 15 -8 7 4 8 -6 4 -31 -4 -20 -3 -36 2 -36 17 0 20 -36 6 -61 -17 -31 -17
-39 -1 -39 16 0 19 -15 17 -84 0 -26 4 -53 9 -60 7 -8 8 -44 4 -97 -12 -146
-5 -405 12 -445 12 -30 13 -44 3 -78 -6 -22 -12 -106 -13 -186 -1 -99 -9 -186
-25 -274 -27 -156 -21 -194 34 -220 19 -9 40 -15 47 -14 7 2 19 -29 30 -77 62
-259 195 -518 357 -697 33 -36 63 -75 66 -85 13 -45 49 -209 46 -213 -6 -10
-133 -60 -152 -60 -11 0 -31 -9 -44 -19 -14 -11 -43 -22 -65 -26 -52 -9 -166
-62 -199 -92 -14 -13 -31 -21 -38 -18 -7 3 -11 1 -8 -4 3 -4 -6 -13 -20 -20
-14 -6 -23 -7 -20 -2 3 5 -1 11 -9 15 -8 3 -14 2 -14 -2 4 -26 -4 -41 -26 -46
-14 -4 -24 -10 -21 -15 3 -4 -18 -7 -47 -6 -29 1 -46 0 -39 -2 6 -3 12 -11 12
-19 0 -8 5 -14 12 -14 6 0 8 -3 5 -6 -4 -4 -13 -2 -20 4 -10 9 -14 8 -14 -3 0
-8 4 -15 9 -15 5 0 6 -5 3 -11 -5 -6 -12 -4 -22 8 -8 10 -11 12 -8 5 5 -10 2
-13 -11 -10 -12 2 -20 13 -22 31 -2 15 -9 27 -17 27 -10 0 -11 -9 -5 -37 6
-24 5 -42 -2 -50 -6 -8 -8 -17 -4 -20 4 -4 12 -1 17 7 9 13 10 13 6 0 -2 -8
-12 -14 -20 -14 -12 1 -16 -5 -13 -20 2 -11 1 -15 -1 -8 -3 7 -8 10 -13 7 -5
-3 -17 6 -27 21 l-17 27 -11 -34 -12 -34 -7 53 c-4 29 -11 50 -16 47 -5 -3 -6
-13 -3 -23 5 -13 3 -14 -7 -5 -7 6 -20 9 -29 6 -14 -4 -14 -3 -1 6 8 5 12 12
9 15 -9 10 -59 14 -59 5 0 -5 5 -9 11 -9 7 0 4 -11 -6 -26 -13 -20 -15 -32 -7
-48 9 -20 7 -22 -24 -22 -30 0 -34 3 -34 27 l0 27 -29 -29 c-32 -31 -51 -37
-51 -15 0 7 -9 16 -21 19 -15 4 -19 2 -15 -9 3 -9 -1 -14 -12 -14 -15 0 -15
-2 -2 -10 8 -5 25 -10 37 -10 15 0 21 -5 17 -14 -6 -16 23 -49 37 -41 5 4 9 2
9 -3 0 -16 -11 -20 -38 -13 -19 5 -27 14 -27 32 0 19 -5 23 -22 21 -13 -2 -23
2 -23 7 0 6 -6 11 -14 11 -7 0 -21 16 -30 35 -20 41 -31 46 -22 9 7 -25 6 -25
-9 -10 -9 9 -21 29 -26 44 -8 25 -8 25 -6 2 1 -14 -7 -34 -21 -47 -26 -26 -33
-29 -28 -10 1 6 1 9 -1 5 -3 -5 -11 -8 -19 -8 -8 0 -14 -4 -14 -10 0 -5 6 -9
12 -7 7 1 14 -8 16 -20 2 -13 8 -23 13 -23 5 0 9 -7 9 -15 0 -8 -9 -15 -20
-15 -11 0 -20 6 -20 13 0 7 -9 18 -20 25 -11 7 -20 21 -20 31 0 11 -5 23 -11
27 -7 4 -9 0 -5 -14 5 -15 -1 -26 -21 -42 -21 -16 -28 -31 -28 -58 -1 -25 -6
-37 -16 -37 -9 0 -13 9 -12 25 l3 25 -10 -24 c-6 -14 -8 -31 -6 -38 3 -7 1
-25 -5 -40 -7 -20 -6 -28 3 -35 10 -6 10 -8 1 -8 -7 0 -13 -5 -13 -11 0 -5 4
-7 10 -4 5 3 10 -1 10 -9 0 -9 -4 -16 -10 -16 -5 0 -10 -13 -10 -30 l0 -30
2250 0 2250 0 0 765 c0 751 0 765 -19 765 -11 0 -23 5 -26 10 -3 6 -12 10 -18
9 -9 0 -8 -2 1 -6 6 -2 10 -9 6 -14 -3 -5 3 -9 12 -9 30 0 6 -12 -31 -17 -25
-2 -37 1 -41 12 -3 8 -10 12 -15 9 -5 -2 -3 -13 3 -23 9 -15 8 -24 -6 -45 -9
-15 -14 -31 -10 -37 7 -12 -27 -40 -40 -32 -5 4 -6 1 -2 -6 4 -6 12 -8 18 -5
7 5 9 -2 4 -20 -5 -19 -3 -26 9 -26 11 0 15 -11 15 -45 0 -55 -14 -59 -28 -7
-9 33 -10 34 -11 10 -1 -16 -5 -28 -11 -28 -5 0 -10 -10 -11 -22 -1 -21 -2
-20 -14 7 -14 30 -14 30 -16 5 -1 -14 -1 -28 -1 -32 1 -3 -5 -11 -12 -17 -11
-9 -14 -8 -12 6 0 10 -5 17 -11 16 -7 -2 -13 7 -14 20 l0 22 -12 -23 c-8 -18
-8 -25 2 -32 8 -4 11 -16 6 -29 -3 -12 -2 -21 4 -21 5 0 11 -6 14 -12 2 -7 3
-3 1 9 -3 16 1 21 14 19 12 -2 17 -12 17 -37 0 -31 -2 -34 -29 -32 -26 2 -28
0 -23 -25 5 -22 0 -32 -19 -47 -27 -20 -35 -71 -9 -61 8 3 15 1 15 -4 0 -6
-12 -10 -26 -10 -14 0 -23 -3 -21 -8 3 -4 -10 -7 -29 -8 -18 0 -35 5 -38 11
-2 7 -33 12 -77 13 -39 0 -77 6 -83 12 -5 5 -19 10 -30 10 -37 0 -245 64 -311
95 -50 23 -166 63 -225 75 -30 7 -64 16 -75 21 -11 5 -51 16 -89 25 -38 8 -82
22 -97 29 -15 8 -45 17 -68 21 -31 5 -44 13 -54 33 -6 14 -22 30 -35 36 -12 5
-22 13 -22 17 0 14 -37 8 -50 -7 -7 -8 -21 -15 -31 -15 -35 0 -30 45 32 305
28 116 53 216 55 223 2 8 12 10 28 6 40 -10 53 7 17 22 -36 15 -36 18 -15 90
15 54 34 72 34 34 0 -15 7 -20 26 -20 20 0 25 4 20 16 -3 9 -6 22 -6 30 0 9
-4 12 -10 9 -5 -3 -10 -1 -10 5 0 6 8 10 18 8 14 -2 17 4 15 32 -3 66 -4 165
-4 304 1 126 -1 141 -21 168 -19 28 -20 35 -10 77 35 143 44 228 39 371 -4
118 -9 155 -27 200 -12 30 -26 80 -30 111 -5 32 -28 97 -53 150 -24 52 -50
110 -57 129 -47 136 -61 161 -112 196 -21 15 -42 40 -48 58 -10 31 -188 216
-207 216 -6 0 -21 8 -34 19 -13 10 -41 24 -61 31 -21 8 -48 24 -62 36 -13 13
-37 26 -53 30 -15 4 -37 17 -48 29 -15 15 -43 25 -108 35 -48 7 -90 17 -93 22
-3 4 -18 8 -34 8 -15 0 -30 5 -32 11 -2 7 -12 7 -33 -1 -17 -6 -62 -14 -101
-16 -66 -4 -72 -3 -77 17 -4 14 -10 18 -19 13 -7 -5 -30 -10 -51 -11 -38 -3
-82 -32 -165 -107 l-34 -31 15 35 c8 19 13 45 12 57 -1 26 -32 63 -51 63 -7 0
-11 6 -8 14 3 8 1 17 -5 21 -6 3 -11 -1 -11 -9z m-316 -531 c-4 -8 -11 -15
-16 -15 -6 0 -5 6 2 15 7 8 14 15 16 15 2 0 1 -7 -2 -15z m-184 -200 c-7 -9
-15 -13 -17 -11 -7 7 7 26 19 26 6 0 6 -6 -2 -15z m945 -210 c17 -2 32 -4 35
-5 14 -5 150 -1 159 5 6 3 44 3 84 -2 39 -4 79 -7 87 -6 8 1 17 -2 20 -6 8
-11 79 -42 92 -40 26 4 76 -14 99 -34 76 -69 129 -105 172 -117 40 -11 49 -18
54 -41 3 -18 10 -26 19 -22 16 6 20 -22 4 -32 -13 -8 0 -37 15 -31 18 6 63
-86 54 -110 -4 -10 -8 -13 -8 -6 -1 20 -21 14 -21 -7 0 -21 43 -34 59 -18 6 6
11 8 11 4 0 -16 2 -23 13 -35 6 -7 10 -41 9 -75 -1 -33 2 -63 7 -67 8 -4 32
-108 59 -250 13 -68 8 -323 -7 -355 -8 -16 -15 -48 -16 -71 -1 -23 -11 -58
-23 -78 -15 -25 -17 -36 -8 -36 7 0 13 -7 13 -15 0 -8 -4 -15 -9 -15 -4 0 -8
-13 -8 -29 0 -34 -18 -51 -31 -30 -6 10 -9 6 -9 -13 0 -15 -5 -30 -10 -33 -6
-4 -10 -14 -9 -23 3 -28 -21 -78 -30 -63 -6 9 -10 7 -14 -8 -5 -22 -37 -30
-37 -9 0 6 -13 -1 -29 -16 -20 -19 -37 -27 -50 -23 -13 3 -21 -1 -24 -12 -3
-9 -5 -4 -6 12 0 15 -5 27 -11 27 -9 0 -15 -35 -11 -70 2 -13 0 -13 -8 -1 -8
12 -12 12 -26 -2 -13 -13 -21 -15 -36 -6 -23 12 -39 47 -31 68 3 8 1 12 -5 8
-6 -4 -13 0 -17 8 -3 8 -12 15 -21 15 -8 0 -15 5 -15 11 0 6 -6 9 -12 6 -7 -2
-25 2 -40 9 -15 8 -34 11 -42 8 -8 -3 -32 0 -53 7 -21 7 -40 14 -43 14 -17 4
-60 29 -60 36 0 4 -10 9 -23 13 -13 3 -29 17 -37 31 -7 14 -18 25 -24 25 -6 0
-22 12 -35 25 -25 27 -51 33 -51 11 0 -27 -138 -26 -147 1 -2 6 16 19 41 28
25 10 45 20 44 24 -2 23 5 31 30 31 40 0 73 -11 66 -22 -8 -13 16 -38 38 -38
28 0 95 37 102 56 9 23 2 28 -21 13 -17 -10 -27 -6 -74 31 -30 23 -55 46 -57
51 -10 27 -92 -30 -92 -63 0 -9 -3 -9 -9 1 -5 8 -7 21 -3 30 3 9 2 13 -3 9
-20 -19 -124 67 -145 119 -14 36 -9 77 21 165 10 32 19 76 19 98 0 23 5 51 11
63 7 11 12 46 12 77 0 30 3 60 7 65 5 6 -5 29 -21 53 -16 23 -29 47 -29 52 0
5 -6 7 -14 4 -8 -3 -22 9 -34 30 -13 23 -29 36 -42 36 -11 0 -20 7 -20 15 0
14 -11 19 -37 16 -8 -1 -10 5 -7 14 4 10 0 15 -10 15 -9 0 -16 4 -16 9 0 5
-14 11 -30 15 -17 3 -39 14 -49 23 -18 17 -18 21 -5 58 7 22 12 45 9 52 -2 6
0 13 6 15 5 2 12 17 15 33 7 47 12 55 31 55 33 0 47 17 45 54 -1 19 2 37 8 41
5 3 10 26 10 51 0 37 3 44 20 44 11 0 20 7 20 15 0 8 8 15 18 15 9 1 28 7 42
16 17 10 38 12 65 8 22 -3 54 -7 70 -9z m-418 -761 c-3 -3 -12 -4 -19 -1 -8 3
-5 6 6 6 11 1 17 -2 13 -5z m103 -103 c0 -12 -28 -22 -34 -12 -3 5 -3 11 1 15
9 9 33 7 33 -3z m-294 -226 c4 -9 19 -15 36 -15 24 0 28 -3 19 -13 -8 -11 -6
-18 8 -31 10 -10 21 -13 24 -9 3 5 33 10 67 11 60 3 90 -10 90 -37 0 -6 7 -11
15 -11 30 0 16 -64 -35 -166 -48 -94 -74 -129 -90 -119 -4 2 -24 5 -44 7 -30
2 -44 10 -63 35 -16 20 -23 41 -20 53 3 11 2 20 -1 20 -13 0 -32 54 -32 87 0
21 6 36 16 40 8 3 20 16 25 29 6 17 16 24 36 24 l28 1 -34 14 c-41 18 -41 18
-41 1 0 -27 -22 -29 -46 -3 -13 14 -31 30 -41 35 -14 8 -15 14 -6 34 9 19 19
25 47 26 24 1 39 -4 42 -13z m29 5 c3 -5 1 -10 -4 -10 -6 0 -11 5 -11 10 0 6
2 10 4 10 3 0 8 -4 11 -10z m1665 -174 c-12 -12 -13 33 -2 114 l7 55 3 -79 c2
-46 -2 -84 -8 -90z m-1042 -399 c32 1 27 -11 -12 -30 -26 -12 -43 -14 -66 -7
-77 22 -74 56 4 45 28 -5 61 -8 74 -8z m137 -37 c3 -5 1 -10 -4 -10 -6 0 -11
5 -11 10 0 6 2 10 4 10 3 0 8 -4 11 -10z m695 1 c0 -12 -20 -25 -27 -18 -7 7
6 27 18 27 5 0 9 -4 9 -9z m-160 -98 c0 -5 -5 -15 -10 -23 -8 -12 -10 -11 -10
8 0 12 5 22 10 22 6 0 10 -3 10 -7z m-483 -44 c14 -5 23 -4 25 3 8 23 28 -3
22 -28 -5 -21 -3 -24 19 -24 14 0 29 5 32 10 11 17 51 11 105 -17 l52 -27 -6
-64 c-7 -68 -20 -101 -43 -115 -7 -5 -10 -13 -7 -19 5 -7 2 -9 -8 -5 -12 4
-14 1 -11 -14 3 -11 0 -19 -6 -19 -7 0 -9 -5 -5 -12 12 -19 13 -101 2 -115 -6
-7 -21 -10 -39 -6 -16 3 -35 0 -44 -7 -9 -8 -25 -9 -47 -4 -18 4 -39 7 -45 5
-7 -1 -13 3 -13 9 0 5 -5 10 -11 10 -6 0 -9 -7 -6 -15 5 -11 1 -12 -16 -5 -12
5 -34 11 -49 14 -31 7 -36 30 -13 60 11 14 12 23 4 33 -9 10 -4 21 17 47 16
19 34 35 40 35 25 2 83 69 90 105 8 46 -7 60 -45 40 -14 -8 -34 -14 -43 -14
-9 0 -20 -4 -23 -10 -9 -15 -36 -12 -50 6 -8 12 -31 17 -81 19 -62 3 -154 28
-154 42 0 16 57 70 84 79 35 13 240 15 273 3z m2353 -150 c0 -6 -4 -7 -10 -4
-5 3 -10 11 -10 16 0 6 5 7 10 4 6 -3 10 -11 10 -16z m-76 -90 c-8 -14 -24
-10 -24 6 0 9 6 12 15 9 8 -4 12 -10 9 -15z m-1630 -71 c-10 -10 -17 -32 -17
-48 0 -17 -4 -30 -9 -30 -5 0 -6 -4 -3 -10 3 -5 1 -10 -5 -10 -6 0 -9 -4 -6
-9 3 -5 -8 -24 -24 -42 -16 -19 -30 -38 -30 -44 -1 -19 -141 -156 -208 -204
-37 -26 -140 -58 -124 -38 6 7 12 26 15 44 3 17 9 38 13 45 5 7 9 18 10 23 0
6 2 17 3 25 1 13 2 13 11 0 8 -12 10 -11 10 8 0 13 6 22 16 22 8 0 12 4 9 10
-3 5 14 21 37 36 73 45 222 181 273 247 28 38 29 38 37 16 6 -15 4 -27 -8 -41z
m1646 26 c0 -8 -4 -12 -10 -9 -5 3 -10 10 -10 16 0 5 5 9 10 9 6 0 10 -7 10
-16z m-90 -68 c0 -3 -7 -6 -15 -6 -9 0 -15 9 -15 21 0 18 2 19 15 5 8 -8 15
-17 15 -20z m-41 -36 c0 -9 -4 -8 -9 5 -5 11 -9 27 -9 35 0 9 4 8 9 -5 5 -11
9 -27 9 -35z m115 9 c5 -5 7 -11 5 -14 -7 -7 -69 18 -69 27 0 10 51 -1 64 -13z
m-64 -20 c12 -8 10 -9 -7 -4 -12 3 -24 1 -28 -5 -3 -5 -11 -10 -18 -10 -6 0
-2 7 9 15 23 17 25 18 44 4z m29 -69 c3 -25 3 -25 -17 -6 -12 10 -26 15 -31
11 -13 -7 -33 3 -27 14 3 3 19 7 38 6 27 0 34 -4 37 -25z m71 10 c0 -5 -4 -10
-10 -10 -5 0 -10 5 -10 10 0 6 5 10 10 10 6 0 10 -4 10 -10z m-110 -59 c0 -5
-7 -11 -15 -15 -15 -5 -20 5 -8 17 9 10 23 9 23 -2z m-110 -27 c0 -17 -22 -14
-28 4 -2 7 3 12 12 12 9 0 16 -7 16 -16z m70 -4 c0 -5 -7 -10 -15 -10 -8 0
-15 5 -15 10 0 6 7 10 15 10 8 0 15 -4 15 -10z m-1606 -15 c-4 -8 -10 -15 -15
-15 -5 0 -9 -6 -9 -14 0 -8 -6 -21 -14 -29 -8 -7 -30 -39 -50 -70 -36 -56 -51
-68 -58 -46 -2 7 -10 -7 -16 -30 -7 -22 -17 -41 -22 -41 -6 0 -10 -8 -11 -17
0 -16 -1 -16 -8 0 -6 17 -8 17 -20 3 -7 -9 -18 -16 -23 -16 -7 0 -6 5 1 13 6
8 7 18 3 22 -4 5 -1 5 6 1 6 -4 12 -2 12 4 0 21 41 70 52 64 7 -4 8 -2 4 4 -3
6 1 17 9 24 9 7 28 24 43 38 14 14 30 24 34 23 4 -2 8 2 8 8 0 13 61 87 72 88
4 1 5 -6 2 -14z m1556 -15 c0 -5 -5 -10 -11 -10 -5 0 -7 5 -4 10 3 6 8 10 11
10 2 0 4 -4 4 -10z m160 6 c0 -3 -4 -8 -10 -11 -5 -3 -10 -1 -10 4 0 6 5 11
10 11 6 0 10 -2 10 -4z m-330 -26 c0 -5 -2 -10 -4 -10 -3 0 -8 5 -11 10 -3 6
-1 10 4 10 6 0 11 -4 11 -10z m110 -10 c0 -5 -4 -10 -10 -10 -5 0 -10 5 -10
10 0 6 5 10 10 10 6 0 10 -4 10 -10z m45 0 c-3 -5 -10 -10 -16 -10 -5 0 -9 5
-9 10 0 6 7 10 16 10 8 0 12 -4 9 -10z m2 -26 c-3 -3 -12 -4 -19 -1 -8 3 -5 6
6 6 11 1 17 -2 13 -5z m-3362 -434 c3 -5 1 -10 -4 -10 -6 0 -11 5 -11 10 0 6
2 10 4 10 3 0 8 -4 11 -10z m-267 -110 c-7 -11 -16 -16 -21 -11 -12 12 0 31
19 31 12 0 12 -3 2 -20z m25 -35 c-3 -9 -8 -14 -10 -11 -3 3 -2 9 2 15 9 16
15 13 8 -4z m-93 -36 c0 -4 -7 -9 -14 -12 -10 -4 -13 -1 -9 9 3 7 0 14 -6 14
-6 0 -11 5 -11 10 0 6 8 5 20 -2 11 -7 20 -16 20 -19z m-250 11 c0 -5 -2 -10
-4 -10 -3 0 -8 5 -11 10 -3 6 -1 10 4 10 6 0 11 -4 11 -10z m160 -21 c0 -5 -4
-9 -10 -9 -5 0 -10 7 -10 16 0 8 5 12 10 9 6 -3 10 -10 10 -16z m32 -1 c-7 -7
-12 -8 -12 -2 0 14 12 26 19 19 2 -3 -1 -11 -7 -17z m188 18 c0 -2 -7 -6 -15
-10 -8 -3 -15 -1 -15 4 0 6 7 10 15 10 8 0 15 -2 15 -4z m-398 -41 c0 -5 -5
-11 -11 -13 -6 -2 -11 4 -11 13 0 9 5 15 11 13 6 -2 11 -8 11 -13z m226 -26
c-3 -8 -7 -3 -11 10 -4 17 -3 21 5 13 5 -5 8 -16 6 -23z m-349 2 c7 -5 12 -13
10 -19 -2 -6 -14 -2 -28 9 -23 19 -9 27 18 10z m-49 -20 c0 -5 10 -11 23 -15
l22 -6 -25 -20 c-33 -26 -43 -25 -29 2 9 16 9 23 0 26 -14 5 -15 22 -1 22 6 0
10 -4 10 -9z m290 -21 c0 -5 -5 -12 -11 -16 -14 -8 -33 11 -25 25 7 11 36 4
36 -9z m-203 -16 c-3 -3 -12 -4 -19 -1 -8 3 -5 6 6 6 11 1 17 -2 13 -5z m-137
-13 c0 -6 -4 -13 -10 -16 -5 -3 -10 1 -10 9 0 9 5 16 10 16 6 0 10 -4 10 -9z
m130 -5 c0 -3 -4 -8 -10 -11 -5 -3 -10 -1 -10 4 0 6 5 11 10 11 6 0 10 -2 10
-4z m-120 -36 c13 -8 13 -10 -2 -10 -9 0 -20 5 -23 10 -8 13 5 13 25 0z m-13
-97 c-3 -10 -5 -5 -5 12 0 17 2 24 5 18 2 -7 2 -21 0 -30z"/>
<path d="M2598 2869 c-3 -8 -47 -13 -143 -15 -155 -4 -184 -8 -235 -35 -19
-11 -43 -19 -52 -19 -10 0 -18 -4 -18 -9 0 -14 -86 -101 -100 -101 -8 0 -10
-9 -7 -27 22 -107 39 -133 79 -122 26 7 27 6 25 -40 -2 -41 0 -46 19 -46 12 0
33 -14 47 -31 38 -45 111 -67 222 -67 104 0 136 12 180 67 16 20 36 36 45 36
18 0 62 42 59 56 -5 19 22 66 40 71 11 3 26 24 36 50 17 44 17 47 0 76 -10 16
-25 37 -34 46 -9 9 -25 28 -36 42 -40 50 -119 92 -127 68z m-25 -188 c30 -12
40 -36 21 -51 -11 -10 -39 -10 -121 -1 -58 6 -108 13 -110 14 -7 7 33 45 52
50 27 7 127 -1 158 -12z m-10 -82 c20 -5 37 -14 37 -20 0 -7 -15 -9 -37 -5
-21 3 -64 8 -95 11 -55 6 -73 17 -45 29 14 6 87 -1 140 -15z m27 -185 c0 -2
-7 -4 -15 -4 -8 0 -15 4 -15 10 0 5 7 7 15 4 8 -4 15 -8 15 -10z"/>
<path d="M2841 1894 c0 -11 3 -14 6 -6 3 7 2 16 -1 19 -3 4 -6 -2 -5 -13z"/>
<path d="M2711 1754 c0 -11 3 -14 6 -6 3 7 2 16 -1 19 -3 4 -6 -2 -5 -13z"/>
<path d="M2520 1670 c13 -9 13 -11 0 -21 -13 -9 -12 -10 3 -5 10 3 24 6 30 6
7 0 3 7 -7 15 -11 8 -25 15 -30 15 -6 0 -4 -5 4 -10z"/>
<path d="M320 4294 c0 -8 5 -12 10 -9 6 3 10 10 10 16 0 5 -4 9 -10 9 -5 0
-10 -7 -10 -16z"/>
<path d="M450 4300 c0 -5 5 -10 10 -10 6 0 10 5 10 10 0 6 -4 10 -10 10 -5 0
-10 -4 -10 -10z"/>
<path d="M270 4286 c0 -8 5 -18 10 -21 6 -3 10 1 10 9 0 8 -4 18 -10 21 -5 3
-10 -1 -10 -9z"/>
<path d="M180 4260 c0 -5 7 -10 15 -10 8 0 15 5 15 10 0 6 -7 10 -15 10 -8 0
-15 -4 -15 -10z"/>
<path d="M4078 4253 c7 -3 16 -2 19 1 4 3 -2 6 -13 5 -11 0 -14 -3 -6 -6z"/>
<path d="M4180 4200 c0 -39 3 -46 20 -46 25 0 25 11 0 56 l-19 35 -1 -45z"/>
<path d="M180 4190 c0 -5 5 -10 11 -10 5 0 7 5 4 10 -3 6 -8 10 -11 10 -2 0
-4 -4 -4 -10z"/>
<path d="M161 4134 c0 -11 3 -14 6 -6 3 7 2 16 -1 19 -3 4 -6 -2 -5 -13z"/>
<path d="M260 4120 c0 -5 5 -10 10 -10 6 0 10 5 10 10 0 6 -4 10 -10 10 -5 0
-10 -4 -10 -10z"/>
<path d="M109 4098 c-7 -17 -6 -78 2 -78 5 0 9 18 9 40 0 32 -6 51 -11 38z"/>
<path d="M135 4089 c-4 -6 -5 -12 -2 -15 7 -7 37 7 37 17 0 13 -27 11 -35 -2z"/>
<path d="M60 4050 c-8 -5 -12 -12 -9 -15 4 -3 12 1 19 10 14 17 11 19 -10 5z"/>
<path d="M13 4023 c-7 -2 -13 -19 -12 -36 1 -30 1 -30 8 -7 5 17 14 25 28 25
12 0 25 3 29 8 4 4 2 7 -4 7 -5 0 -16 2 -24 4 -7 3 -19 2 -25 -1z"/>
<path d="M4187 3983 c-12 -12 -7 -22 8 -17 8 4 15 10 15 15 0 11 -14 12 -23 2z"/>
<path d="M40 3965 c-6 -8 -10 -22 -8 -32 3 -14 8 -12 26 15 18 24 20 32 9 32
-8 0 -20 -7 -27 -15z"/>
<path d="M105 3900 c3 -5 8 -10 11 -10 2 0 4 5 4 10 0 6 -5 10 -11 10 -5 0 -7
-4 -4 -10z"/>
<path d="M141 3894 c0 -11 3 -14 6 -6 3 7 2 16 -1 19 -3 4 -6 -2 -5 -13z"/>
<path d="M4268 3863 c7 -3 16 -2 19 1 4 3 -2 6 -13 5 -11 0 -14 -3 -6 -6z"/>
<path d="M4300 3820 c0 -5 5 -10 10 -10 6 0 10 5 10 10 0 6 -4 10 -10 10 -5 0
-10 -4 -10 -10z"/>
<path d="M4285 3740 c3 -5 10 -10 16 -10 5 0 9 5 9 10 0 6 -7 10 -16 10 -8 0
-12 -4 -9 -10z"/>
<path d="M4335 3640 c-3 -5 1 -10 9 -10 9 0 16 5 16 10 0 6 -4 10 -9 10 -6 0
-13 -4 -16 -10z"/>
<path d="M4320 3600 c0 -5 10 -10 23 -10 18 0 19 2 7 10 -19 13 -30 13 -30 0z"/>
<path d="M4365 3560 c3 -5 13 -10 21 -10 8 0 14 5 14 10 0 6 -9 10 -21 10 -11
0 -17 -4 -14 -10z"/>
<path d="M4332 3520 c0 -14 2 -19 5 -12 2 6 2 18 0 25 -3 6 -5 1 -5 -13z"/>
<path d="M4384 3361 c14 -16 21 -17 31 -8 9 8 10 16 4 22 -7 6 -13 5 -19 -5
-7 -10 -10 -11 -10 -2 0 6 -5 12 -12 12 -6 0 -4 -8 6 -19z"/>
<path d="M4440 3180 c0 -5 5 -10 10 -10 6 0 10 5 10 10 0 6 -4 10 -10 10 -5 0
-10 -4 -10 -10z"/>
<path d="M4485 3061 c-3 -5 -1 -12 5 -16 5 -3 10 1 10 9 0 18 -6 21 -15 7z"/>
<path d="M4492 3000 c0 -14 2 -19 5 -12 2 6 2 18 0 25 -3 6 -5 1 -5 -13z"/>
<path d="M4470 2973 c0 -15 19 -37 26 -31 3 4 -1 14 -10 23 -9 9 -16 13 -16 8z"/>
<path d="M4460 2931 c0 -6 5 -13 10 -16 6 -4 8 -10 5 -15 -3 -4 2 -10 10 -14
11 -4 15 1 15 18 0 13 -7 27 -16 30 -21 8 -24 8 -24 -3z"/>
<path d="M4475 2850 c-19 -8 -19 -9 3 -9 12 -1 22 4 22 9 0 6 -1 10 -2 9 -2 0
-12 -4 -23 -9z"/>
<path d="M4474 2774 c3 -8 6 -20 6 -25 0 -5 5 -9 10 -9 16 0 11 37 -6 44 -12
5 -15 2 -10 -10z"/>
<path d="M4473 2649 c-1 -11 5 -19 13 -19 18 0 19 26 1 33 -8 3 -14 -3 -14
-14z"/>
<path d="M4487 2500 c-3 -11 -1 -23 4 -26 5 -3 9 6 9 20 0 31 -6 34 -13 6z"/>
<path d="M4480 2426 c0 -9 5 -16 10 -16 6 0 10 4 10 9 0 6 -4 13 -10 16 -5 3
-10 -1 -10 -9z"/>
<path d="M4470 2374 c0 -8 -4 -13 -9 -9 -6 3 -9 -4 -8 -15 1 -23 17 -28 17 -5
0 9 6 12 18 9 14 -5 15 -4 2 5 -10 7 -11 11 -2 11 6 0 12 5 12 10 0 6 -7 10
-15 10 -8 0 -15 -7 -15 -16z"/>
<path d="M4470 2260 c0 -5 7 -10 15 -10 8 0 15 5 15 10 0 6 -7 10 -15 10 -8 0
-15 -4 -15 -10z"/>
<path d="M4430 2100 c8 -5 20 -10 25 -10 6 0 3 5 -5 10 -8 5 -19 10 -25 10 -5
0 -3 -5 5 -10z"/>
<path d="M4466 2072 c-2 -4 -1 -14 5 -22 7 -13 9 -12 9 2 0 9 6 19 13 21 7 3
6 6 -5 6 -9 1 -19 -3 -22 -7z"/>
<path d="M4428 2018 c5 -5 16 -8 23 -6 8 3 3 7 -10 11 -17 4 -21 3 -13 -5z"/>
<path d="M4480 2020 c0 -5 5 -10 10 -10 6 0 10 5 10 10 0 6 -4 10 -10 10 -5 0
-10 -4 -10 -10z"/>
<path d="M4478 1963 c7 -3 16 -2 19 1 4 3 -2 6 -13 5 -11 0 -14 -3 -6 -6z"/>
<path d="M4475 1826 c0 -17 4 -42 9 -55 5 -15 4 -26 -3 -30 -12 -8 -3 -51 10
-51 5 0 9 38 9 83 0 60 -3 84 -12 84 -8 0 -13 -13 -13 -31z"/>
<path d="M4435 1780 c-3 -5 -2 -10 4 -10 5 0 13 5 16 10 3 6 2 10 -4 10 -5 0
-13 -4 -16 -10z"/>
<path d="M4390 1750 c0 -5 5 -10 10 -10 6 0 10 5 10 10 0 6 -4 10 -10 10 -5 0
-10 -4 -10 -10z"/>
<path d="M4457 1713 c-4 -3 -7 -11 -7 -17 0 -6 5 -5 12 2 6 6 9 14 7 17 -3 3
-9 2 -12 -2z"/>
<path d="M4446 1664 c-4 -11 1 -18 14 -21 11 -3 20 -9 20 -14 0 -5 5 -9 10 -9
6 0 10 14 10 30 0 25 -4 30 -24 30 -13 0 -27 -7 -30 -16z m34 -4 c0 -5 -4 -10
-10 -10 -5 0 -10 5 -10 10 0 6 5 10 10 10 6 0 10 -4 10 -10z"/>
<path d="M4447 1623 c-13 -13 -7 -25 10 -19 9 4 20 1 24 -6 4 -7 11 -9 15 -5
4 4 -1 14 -12 22 -22 16 -28 18 -37 8z"/>
<path d="M4468 1564 c13 -9 26 -13 30 -9 8 8 -17 25 -38 25 -9 0 -6 -6 8 -16z"/>
<path d="M4395 1530 c3 -5 11 -10 16 -10 6 0 7 5 4 10 -3 6 -11 10 -16 10 -6
0 -7 -4 -4 -10z"/>
<path d="M4320 1418 c0 -19 2 -20 10 -8 13 19 13 30 0 30 -5 0 -10 -10 -10
-22z"/>
<path d="M4280 1360 c0 -5 5 -10 11 -10 5 0 7 5 4 10 -3 6 -8 10 -11 10 -2 0
-4 -4 -4 -10z"/>
<path d="M4182 1280 c0 -14 2 -19 5 -12 2 6 2 18 0 25 -3 6 -5 1 -5 -13z"/>
<path d="M4230 1296 c0 -2 11 -6 25 -8 14 -3 25 -1 25 3 0 5 -11 9 -25 9 -14
0 -25 -2 -25 -4z"/>
<path d="M4177 1193 c-4 -3 -7 -11 -7 -17 0 -6 5 -5 12 2 6 6 9 14 7 17 -3 3
-9 2 -12 -2z"/>
<path d="M4087 993 c-7 -7 22 -32 38 -33 6 0 3 5 -5 10 -11 7 -11 10 -2 10 7
0 10 5 7 10 -7 11 -28 13 -38 3z"/>
<path d="M932 550 c7 -10 14 -18 15 -16 6 6 -9 36 -18 36 -5 0 -4 -9 3 -20z"/>
<path d="M850 546 c0 -2 8 -10 18 -17 15 -13 16 -12 3 4 -13 16 -21 21 -21 13z"/>
<path d="M280 499 c0 -5 5 -7 10 -4 6 3 10 8 10 11 0 2 -4 4 -10 4 -5 0 -10
-5 -10 -11z"/>
<path d="M497 495 c3 -8 9 -12 14 -9 12 7 11 11 -5 17 -10 4 -13 1 -9 -8z"/>
<path d="M340 480 c0 -5 5 -10 10 -10 6 0 10 5 10 10 0 6 -4 10 -10 10 -5 0
-10 -4 -10 -10z"/>
<path d="M290 465 c0 -8 2 -15 4 -15 2 0 6 7 10 15 3 8 1 15 -4 15 -6 0 -10
-7 -10 -15z"/>
<path d="M457 451 c-22 -38 -21 -51 3 -51 11 0 23 -7 26 -15 8 -19 24 -20 24
-1 0 8 -7 17 -16 20 -10 4 -13 13 -9 27 5 16 4 19 -5 14 -9 -5 -10 -2 -5 14 9
29 2 26 -18 -8z"/>
<path d="M400 461 c0 -5 5 -13 10 -16 6 -3 10 -2 10 4 0 5 -4 13 -10 16 -5 3
-10 2 -10 -4z"/>
<path d="M701 418 c-1 -41 22 -54 32 -18 3 11 1 17 -4 14 -5 -3 -13 5 -18 18
-9 20 -10 19 -10 -14z"/>
<path d="M275 430 c-3 -5 1 -10 9 -10 8 0 17 -8 19 -17 4 -15 5 -15 6 -2 1 21
-25 44 -34 29z"/>
<path d="M383 413 c-15 -5 -17 -23 -4 -23 5 0 11 7 15 15 3 8 4 15 3 14 -1 0
-8 -3 -14 -6z"/>
<path d="M110 392 c0 -5 7 -15 15 -22 8 -7 15 -8 15 -2 0 5 -7 15 -15 22 -8 7
-15 8 -15 2z"/>
<path d="M321 384 c-7 -8 -10 -18 -7 -21 7 -7 36 16 36 28 0 13 -13 10 -29 -7z"/>
<path d="M410 368 c0 -36 4 -35 14 5 4 16 2 27 -4 27 -5 0 -10 -14 -10 -32z"/>
<path d="M15 300 c3 -5 8 -10 11 -10 2 0 4 5 4 10 0 6 -5 10 -11 10 -5 0 -7
-4 -4 -10z"/>
<path d="M15 270 c-3 -5 1 -10 10 -10 9 0 13 5 10 10 -3 6 -8 10 -10 10 -2 0
-7 -4 -10 -10z"/>
</g>
</svg>
